<?xml version="1.0" encoding="UTF-8" standalone="no"?>
<svg
   xmlns:dc="http://purl.org/dc/elements/1.1/"
   xmlns:cc="http://creativecommons.org/ns#"
   xmlns:rdf="http://www.w3.org/1999/02/22-rdf-syntax-ns#"
   xmlns:svg="http://www.w3.org/2000/svg"
   xmlns="http://www.w3.org/2000/svg"
   xmlns:sodipodi="http://sodipodi.sourceforge.net/DTD/sodipodi-0.dtd"
   xmlns:inkscape="http://www.inkscape.org/namespaces/inkscape"
   width="106.78584mm"
   height="129.64583mm"
   viewBox="0 0 106.78584 129.64583"
   version="1.1"
   id="svg8"
   inkscape:version="1.0.2-2 (e86c870879, 2021-01-15)">
  <defs
     id="defs2" />
  <sodipodi:namedview
     id="base"
     pagecolor="#ffffff"
     bordercolor="#666666"
     borderopacity="1.0"
     inkscape:pageopacity="0.0"
     inkscape:pageshadow="2"
     inkscape:zoom="0.98994949"
     inkscape:cx="185.07312"
     inkscape:cy="269.23348"
     inkscape:document-units="mm"
     inkscape:current-layer="g12"
     inkscape:document-rotation="0"
     showgrid="false"
     inkscape:window-width="1267"
     inkscape:window-height="1050"
     inkscape:window-x="234"
     inkscape:window-y="426"
     inkscape:window-maximized="0" />
  <metadata
     id="metadata5">
    <rdf:RDF>
      <cc:Work
         rdf:about="">
        <dc:format>image/svg+xml</dc:format>
        <dc:type
           rdf:resource="http://purl.org/dc/dcmitype/StillImage" />
        <dc:title></dc:title>
      </cc:Work>
    </rdf:RDF>
  </metadata>
  <g
     inkscape:label="Layer 1"
     inkscape:groupmode="layer"
     id="layer1"
     transform="translate(-23.714227,-30.427089)">
    <g
       id="g68"
       transform="matrix(0.26458333,0,0,0.26458333,12.284227,30.427089)">
      <g
         id="g12">
	<path
   d="M 52.8,311.3 C 40,298.5 40,277.9 52.8,265.1 c 6.4,-6.4 14.7,-9.6 23.1,-9.6 8.4,0 16.7,3.2 23.1,9.6 L 212.4,378.5 V 32.7 C 212.4,14.7 227,0 245.1,0 c 18,0 32.7,14.6 32.7,32.7 V 378.5 L 391,265.1 c 12.8,-12.8 33.4,-12.8 46.2,0 12.8,12.8 12.8,33.4 0,46.2 L 268.1,480.4 c -6.1,6.1 -14.4,9.6 -23.1,9.6 -8.7,0 -17,-3.4 -23.1,-9.6 z"
   id="path10"
   style="fill:#ffffff;fill-opacity:1" />

</g>
      <g
         id="g14">
</g>
      <g
         id="g16">
</g>
      <g
         id="g18">
</g>
      <g
         id="g20">
</g>
      <g
         id="g22">
</g>
      <g
         id="g24">
</g>
      <g
         id="g26">
</g>
      <g
         id="g28">
</g>
      <g
         id="g30">
</g>
      <g
         id="g32">
</g>
      <g
         id="g34">
</g>
      <g
         id="g36">
</g>
      <g
         id="g38">
</g>
      <g
         id="g40">
</g>
      <g
         id="g42">
</g>
    </g>
  </g>
</svg>
